<svg xmlns="http://www.w3.org/2000/svg" xmlns:xlink="http://www.w3.org/1999/xlink" width="500" zoomAndPan="magnify" viewBox="0 0 375 374.999991" height="500" preserveAspectRatio="xMidYMid meet" version="1.2"><defs/><g id="1fada213eb"><g style="fill:#8a5cf6;fill-opacity:1;"><g transform="translate(34.113208, 304.20289)"><path style="stroke:none" d="M 22.890625 0 L 22.890625 -179.796875 L 73.5625 -179.796875 L 73.5625 -158.4375 L 75.40625 -158.4375 C 78.757812 -162.914062 83.054688 -167.035156 88.296875 -170.796875 C 93.535156 -174.554688 99.691406 -177.582031 106.765625 -179.875 C 113.835938 -182.164062 121.75 -183.3125 130.5 -183.3125 C 142.707031 -183.3125 153.414062 -180.71875 162.625 -175.53125 C 171.832031 -170.34375 178.976562 -162.863281 184.0625 -153.09375 C 189.15625 -143.320312 191.703125 -131.566406 191.703125 -117.828125 L 191.703125 0 L 140.875 0 L 140.875 -105.171875 C 140.875 -118.296875 138.101562 -127.628906 132.5625 -133.171875 C 127.019531 -138.710938 119.566406 -141.484375 110.203125 -141.484375 C 103.285156 -141.484375 97.128906 -139.984375 91.734375 -136.984375 C 86.335938 -133.984375 82.085938 -129.226562 78.984375 -122.71875 C 75.878906 -116.207031 74.328125 -107.660156 74.328125 -97.078125 L 74.328125 0 Z M 22.890625 0 "/></g></g><g style="fill:#8a5cf6;fill-opacity:1;"><g transform="translate(223.02921, 304.20289)"><path style="stroke:none" d="M 31.4375 0 L 31.4375 -55.5625 L 86.546875 -55.5625 L 86.546875 0 Z M 31.4375 0 "/></g></g></g></svg>