<svg xmlns="http://www.w3.org/2000/svg" xmlns:xlink="http://www.w3.org/1999/xlink" width="500" zoomAndPan="magnify" viewBox="0 0 375 374.999991" height="500" preserveAspectRatio="xMidYMid meet" version="1.2"><defs/><g id="5efc9c169d"><g style="fill:#5c28d8;fill-opacity:1;"><g transform="translate(73.150913, 274.50141)"><path style="stroke:none" d="M 17.0625 0 L 17.0625 -134.03125 L 54.84375 -134.03125 L 54.84375 -118.109375 L 56.203125 -118.109375 C 58.710938 -121.441406 61.921875 -124.507812 65.828125 -127.3125 C 69.734375 -130.125 74.320312 -132.382812 79.59375 -134.09375 C 84.863281 -135.800781 90.757812 -136.65625 97.28125 -136.65625 C 106.382812 -136.65625 114.367188 -134.71875 121.234375 -130.84375 C 128.097656 -126.976562 133.425781 -121.40625 137.21875 -114.125 C 141.007812 -106.84375 142.90625 -98.082031 142.90625 -87.84375 L 142.90625 0 L 105.015625 0 L 105.015625 -78.390625 C 105.015625 -88.179688 102.945312 -95.144531 98.8125 -99.28125 C 94.6875 -103.414062 89.132812 -105.484375 82.15625 -105.484375 C 77 -105.484375 72.410156 -104.363281 68.390625 -102.125 C 64.367188 -99.882812 61.195312 -96.335938 58.875 -91.484375 C 56.5625 -86.628906 55.40625 -80.253906 55.40625 -72.359375 L 55.40625 0 Z M 17.0625 0 "/></g></g><g style="fill:#5c28d8;fill-opacity:1;"><g transform="translate(213.986841, 274.50141)"><path style="stroke:none" d="M 23.4375 0 L 23.4375 -41.421875 L 64.515625 -41.421875 L 64.515625 0 Z M 23.4375 0 "/></g></g></g></svg>